<?xml version="1.0" encoding="UTF-8" standalone="no"?>
<!-- Created with Inkscape (http://www.inkscape.org/) -->

<svg
   xmlns:dc="http://purl.org/dc/elements/1.1/"
   xmlns:cc="http://creativecommons.org/ns#"
   xmlns:rdf="http://www.w3.org/1999/02/22-rdf-syntax-ns#"
   xmlns:svg="http://www.w3.org/2000/svg"
   xmlns="http://www.w3.org/2000/svg"
   xmlns:sodipodi="http://sodipodi.sourceforge.net/DTD/sodipodi-0.dtd"
   xmlns:inkscape="http://www.inkscape.org/namespaces/inkscape"
   width="203.2mm"
   height="128.5mm"
   viewBox="0 0 203.20002 128.50002"
   version="1.1"
   id="svg8"
   inkscape:version="0.92.2 5c3e80d, 2017-08-06"
   sodipodi:docname="RaagSequencer.svg">
  <defs
     id="defs2" />
  <sodipodi:namedview
     id="base"
     pagecolor="#ffffff"
     bordercolor="#666666"
     borderopacity="1.0"
     inkscape:pageopacity="0.0"
     inkscape:pageshadow="2"
     inkscape:zoom="1.4"
     inkscape:cx="329.92959"
     inkscape:cy="216.28569"
     inkscape:document-units="mm"
     inkscape:current-layer="layer1"
     showgrid="false"
     units="in"
     inkscape:snap-bbox="true"
     inkscape:snap-page="true"
     inkscape:bbox-nodes="false"
     inkscape:snap-bbox-edge-midpoints="false"
     inkscape:window-width="2495"
     inkscape:window-height="1294"
     inkscape:window-x="0"
     inkscape:window-y="1"
     inkscape:window-maximized="0"
     inkscape:snap-bbox-midpoints="true"
     inkscape:snap-nodes="false"
     showguides="false"
     inkscape:measure-start="187.143,450.714"
     inkscape:measure-end="772.143,452.143">
    <inkscape:grid
       type="xygrid"
       id="grid818" />
    <sodipodi:guide
       position="109.04597,141.65288"
       orientation="0,1"
       id="guide820"
       inkscape:locked="false" />
  </sodipodi:namedview>
  <metadata
     id="metadata5">
    <rdf:RDF>
      <cc:Work
         rdf:about="">
        <dc:format>image/svg+xml</dc:format>
        <dc:type
           rdf:resource="http://purl.org/dc/dcmitype/StillImage" />
        <dc:title></dc:title>
      </cc:Work>
    </rdf:RDF>
  </metadata>
  <g
     inkscape:label="Layer 1"
     inkscape:groupmode="layer"
     id="layer1"
     transform="translate(0,-168.49998)">
    <rect
       style="display:inline;opacity:1;vector-effect:none;fill:#e6e6e6;fill-opacity:1;fill-rule:evenodd;stroke:none;stroke-width:1.67637265;stroke-linecap:butt;stroke-linejoin:miter;stroke-miterlimit:4;stroke-dasharray:none;stroke-dashoffset:0;stroke-opacity:1;paint-order:normal"
       id="rect420"
       width="203.13612"
       height="128.5"
       x="5.9211732e-17"
       y="168.49997" />
    <rect
       style="opacity:0.994;fill:#b3b3b3;fill-opacity:1;stroke:#020200;stroke-width:0;stroke-linejoin:miter;stroke-miterlimit:4;stroke-dasharray:none;stroke-dashoffset:0;stroke-opacity:0.95121951"
       id="rect814"
       width="9.4260626"
       height="128.61371"
       x="153.4487"
       y="168.41483" />
    <g
       aria-label="OCTAVE RANGE"
       transform="matrix(1.243848,0,0,1.0700454,0.70430697,142.34586)"
       style="font-style:normal;font-weight:normal;font-size:2.34997702px;line-height:1.25;font-family:sans-serif;letter-spacing:0px;word-spacing:0px;fill:#000000;fill-opacity:1;stroke:none;stroke-width:0.05874942"
       id="text844">
      <path
         d="m 72.815762,220.89312 q -0.252439,0 -0.401607,0.18819 -0.148021,0.18818 -0.148021,0.51291 0,0.32358 0.148021,0.51176 0.149168,0.18818 0.401607,0.18818 0.252439,0 0.399313,-0.18818 0.148021,-0.18818 0.148021,-0.51176 0,-0.32473 -0.148021,-0.51291 -0.146874,-0.18819 -0.399313,-0.18819 z m 0,-0.18818 q 0.3603,0 0.57602,0.24211 0.215721,0.24097 0.215721,0.64717 0,0.40505 -0.215721,0.64716 -0.21572,0.24096 -0.57602,0.24096 -0.361446,0 -0.578314,-0.24096 -0.215721,-0.24097 -0.215721,-0.64716 0,-0.4062 0.215721,-0.64717 0.216868,-0.24211 0.578314,-0.24211 z"
         style="stroke-width:0.05874942"
         id="path985"
         inkscape:connector-curvature="0" />
      <path
         d="m 75.252946,220.86788 v 0.24441 q -0.11704,-0.10901 -0.250144,-0.16294 -0.131957,-0.0539 -0.281126,-0.0539 -0.293747,0 -0.4498,0.18015 -0.156053,0.179 -0.156053,0.51865 0,0.33849 0.156053,0.51864 0.156053,0.17901 0.4498,0.17901 0.149169,0 0.281126,-0.0539 0.133104,-0.0539 0.250144,-0.16294 v 0.24211 q -0.12163,0.0826 -0.258177,0.12392 -0.135399,0.0413 -0.286862,0.0413 -0.388985,0 -0.612738,-0.23752 -0.223753,-0.23867 -0.223753,-0.6506 0,-0.41309 0.223753,-0.65061 0.223753,-0.23867 0.612738,-0.23867 0.153758,0 0.289157,0.0413 0.136547,0.0402 0.255882,0.12163 z"
         style="stroke-width:0.05874942"
         id="path987"
         inkscape:connector-curvature="0" />
      <path
         d="m 75.375723,220.73592 h 1.449229 v 0.19507 h -0.608149 v 1.51808 h -0.232932 v -1.51808 h -0.608148 z"
         style="stroke-width:0.05874942"
         id="path989"
         inkscape:connector-curvature="0" />
      <path
         d="m 77.438837,220.96427 -0.314401,0.85255 h 0.62995 z m -0.130809,-0.22835 h 0.262766 l 0.652899,1.71315 h -0.240965 l -0.156053,-0.43948 h -0.772233 l -0.156054,0.43948 h -0.244406 z"
         style="stroke-width:0.05874942"
         id="path991"
         inkscape:connector-curvature="0" />
      <path
         d="m 78.765289,222.44907 -0.654046,-1.71315 h 0.242112 l 0.542743,1.44235 0.543892,-1.44235 h 0.240964 l -0.652899,1.71315 z"
         style="stroke-width:0.05874942"
         id="path993"
         inkscape:connector-curvature="0" />
      <path
         d="m 79.932246,220.73592 h 1.083192 v 0.19507 H 80.16403 v 0.50717 h 0.815837 v 0.19507 H 80.16403 v 0.62077 h 0.872062 v 0.19507 h -1.103846 z"
         style="stroke-width:0.05874942"
         id="path995"
         inkscape:connector-curvature="0" />
      <path
         d="m 82.979872,221.64585 q 0.07458,0.0252 0.144579,0.10786 0.07114,0.0826 0.142283,0.2272 l 0.235227,0.46816 h -0.248996 l -0.219163,-0.43948 q -0.08491,-0.17211 -0.165233,-0.22834 -0.07917,-0.0562 -0.216868,-0.0562 h -0.252439 v 0.72404 h -0.231785 v -1.71315 h 0.523238 q 0.293747,0 0.438325,0.12278 0.144579,0.12278 0.144579,0.37063 0,0.16179 -0.07573,0.2685 -0.07458,0.10671 -0.218015,0.14802 z m -0.58061,-0.71945 v 0.60815 h 0.291453 q 0.167527,0 0.252438,-0.0769 0.08606,-0.078 0.08606,-0.22834 0,-0.15032 -0.08606,-0.22605 -0.08491,-0.0769 -0.252438,-0.0769 z"
         style="stroke-width:0.05874942"
         id="path997"
         inkscape:connector-curvature="0" />
      <path
         d="m 84.279933,220.96427 -0.314401,0.85255 h 0.629949 z m -0.13081,-0.22835 h 0.262766 l 0.652899,1.71315 h -0.240964 l -0.156053,-0.43948 h -0.772234 l -0.156053,0.43948 h -0.244407 z"
         style="stroke-width:0.05874942"
         id="path999"
         inkscape:connector-curvature="0" />
      <path
         d="m 85.31608,220.73592 h 0.312106 l 0.759612,1.43317 v -1.43317 h 0.2249 v 1.71315 H 86.300592 L 85.54098,221.0159 v 1.43317 h -0.2249 z"
         style="stroke-width:0.05874942"
         id="path1001"
         inkscape:connector-curvature="0" />
      <path
         d="m 88.242076,222.20466 v -0.46013 h -0.378658 v -0.19047 h 0.608148 v 0.73551 q -0.134251,0.0952 -0.296042,0.14458 -0.16179,0.0482 -0.345382,0.0482 -0.401607,0 -0.628803,-0.23408 -0.226047,-0.23522 -0.226047,-0.65404 0,-0.41997 0.226047,-0.65405 0.227196,-0.23523 0.628803,-0.23523 0.167528,0 0.317843,0.0413 0.151464,0.0413 0.278831,0.12163 v 0.2467 q -0.128515,-0.10901 -0.273093,-0.16408 -0.144579,-0.0551 -0.304074,-0.0551 -0.314402,0 -0.47275,0.17556 -0.1572,0.17556 -0.1572,0.52324 0,0.34653 0.1572,0.52209 0.158348,0.17556 0.47275,0.17556 0.122777,0 0.219162,-0.0207 0.09639,-0.0218 0.173265,-0.0666 z"
         style="stroke-width:0.05874942"
         id="path1003"
         inkscape:connector-curvature="0" />
      <path
         d="m 88.896123,220.73592 h 1.083192 v 0.19507 h -0.851407 v 0.50717 h 0.815836 v 0.19507 h -0.815836 v 0.62077 h 0.872061 v 0.19507 h -1.103846 z"
         style="stroke-width:0.05874942"
         id="path1005"
         inkscape:connector-curvature="0" />
    </g>
    <rect
       y="168.41483"
       x="40.207058"
       height="128.61371"
       width="9.4260626"
       id="rect874"
       style="opacity:0.994;fill:#b3b3b3;fill-opacity:1;stroke:#020200;stroke-width:0;stroke-linejoin:miter;stroke-miterlimit:4;stroke-dasharray:none;stroke-dashoffset:0;stroke-opacity:0.95121951" />
    <g
       aria-label="STEP"
       transform="matrix(1.0062354,0,0,0.99380322,9.7139873,4.3467261)"
       style="font-style:normal;font-weight:normal;font-size:2.82476735px;line-height:1.25;font-family:sans-serif;letter-spacing:0px;word-spacing:0px;fill:#000000;fill-opacity:1;stroke:none;stroke-width:0.07061918"
       id="text1595">
      <path
         d="m 81.530369,223.63341 q 0,0.12 -0.05655,0.23724 -0.05517,0.11724 -0.155858,0.19861 -0.110343,0.0883 -0.257926,0.13793 -0.146204,0.0497 -0.353096,0.0497 -0.222064,0 -0.399991,-0.0414 -0.176548,-0.0414 -0.359993,-0.12276 v -0.34206 h 0.01931 q 0.155859,0.12965 0.359993,0.19999 0.204133,0.0704 0.38344,0.0704 0.253787,0 0.394474,-0.0952 0.142066,-0.0952 0.142066,-0.25379 0,-0.13655 -0.06758,-0.20138 -0.0662,-0.0648 -0.202754,-0.10068 -0.103446,-0.0276 -0.224823,-0.0455 -0.119997,-0.0179 -0.255167,-0.0455 -0.273097,-0.0579 -0.405508,-0.19723 -0.131032,-0.14069 -0.131032,-0.36551 0,-0.25793 0.217926,-0.42206 0.217927,-0.16552 0.553092,-0.16552 0.216547,0 0.397233,0.0414 0.180686,0.0414 0.319993,0.10207 v 0.32275 h -0.01931 q -0.117239,-0.0993 -0.308959,-0.16413 -0.190341,-0.0662 -0.390336,-0.0662 -0.219306,0 -0.353096,0.091 -0.132411,0.091 -0.132411,0.23448 0,0.12828 0.0662,0.20138 0.06621,0.0731 0.233099,0.11172 0.08827,0.0193 0.251029,0.0469 0.162755,0.0276 0.275856,0.0565 0.228961,0.0607 0.34482,0.18345 0.11586,0.12276 0.11586,0.34344 z"
         style="stroke-width:0.07061918"
         id="path1767"
         inkscape:connector-curvature="0" />
      <path
         d="m 83.433777,222.40861 h -0.733778 v 1.81099 h -0.273097 v -1.81099 h -0.733778 v -0.24275 h 1.740653 z"
         style="stroke-width:0.07061918"
         id="path1769"
         inkscape:connector-curvature="0" />
      <path
         d="m 85.065466,224.2196 h -1.353075 v -2.05374 h 1.353075 v 0.24275 h -1.079977 v 0.56275 h 1.079977 v 0.24275 h -1.079977 v 0.76274 h 1.079977 z"
         style="stroke-width:0.07061918"
         id="path1771"
         inkscape:connector-curvature="0" />
      <path
         d="m 86.843359,222.78653 q 0,0.13655 -0.04828,0.25379 -0.0469,0.11586 -0.132411,0.20137 -0.106205,0.10621 -0.251029,0.16 -0.144825,0.0524 -0.36551,0.0524 h -0.273097 v 0.7655 h -0.273098 v -2.05374 h 0.55723 q 0.184823,0 0.313096,0.0317 0.128274,0.0303 0.227582,0.0966 0.117239,0.0786 0.180686,0.19586 0.06483,0.11724 0.06483,0.29654 z m -0.284132,0.007 q 0,-0.10621 -0.03724,-0.18483 -0.03724,-0.0786 -0.113101,-0.12827 -0.0662,-0.0428 -0.151721,-0.0607 -0.08414,-0.0193 -0.213788,-0.0193 h -0.270339 v 0.82068 h 0.23034 q 0.165513,0 0.268959,-0.029 0.103447,-0.0303 0.168273,-0.0952 0.06483,-0.0662 0.09103,-0.13931 0.02759,-0.0731 0.02759,-0.16413 z"
         style="stroke-width:0.07061918"
         id="path1773"
         inkscape:connector-curvature="0" />
    </g>
    <g
       aria-label="DIRECTION"
       transform="matrix(1.0062354,0,0,0.99380322,9.9785715,15.270238)"
       style="font-style:normal;font-weight:normal;font-size:2.82476735px;line-height:1.25;font-family:sans-serif;letter-spacing:0px;word-spacing:0px;fill:#000000;fill-opacity:1;stroke:none;stroke-width:0.07061918"
       id="text1603">
      <path
         d="m 59.986349,208.17164 q 0,0.27999 -0.122756,0.50757 -0.121377,0.22758 -0.324131,0.3531 -0.140687,0.0869 -0.314476,0.12551 -0.172411,0.0386 -0.455163,0.0386 h -0.51861 v -2.05375 h 0.513093 q 0.300683,0 0.477231,0.0441 0.177927,0.0428 0.300683,0.11862 0.209651,0.13103 0.32689,0.34896 0.117239,0.21792 0.117239,0.51723 z m -0.285511,-0.004 q 0,-0.24138 -0.08414,-0.40689 -0.08414,-0.16551 -0.251029,-0.26068 -0.121376,-0.069 -0.257925,-0.0952 -0.136549,-0.0276 -0.32689,-0.0276 h -0.256546 v 1.58479 h 0.256546 q 0.197237,0 0.343441,-0.029 0.147583,-0.029 0.270339,-0.10758 0.1531,-0.0979 0.228961,-0.25793 0.07724,-0.16 0.07724,-0.39999 z"
         style="stroke-width:0.07061918"
         id="path1748"
         inkscape:connector-curvature="0" />
      <path
         d="m 61.1546,209.19644 h -0.811018 v -0.20965 h 0.26896 v -1.63445 h -0.26896 v -0.20965 H 61.1546 v 0.20965 h -0.26896 v 1.63445 h 0.26896 z"
         style="stroke-width:0.07061918"
         id="path1750"
         inkscape:connector-curvature="0" />
      <path
         d="m 63.32145,209.19644 h -0.354475 l -0.686882,-0.81653 h -0.38482 v 0.81653 h -0.273097 v -2.05375 h 0.57516 q 0.186203,0 0.310338,0.0248 0.124136,0.0234 0.223444,0.0855 0.111721,0.0703 0.173789,0.17793 0.06345,0.10621 0.06345,0.27034 0,0.22207 -0.111722,0.37241 -0.111721,0.14896 -0.307579,0.22482 z m -0.638607,-1.47583 q 0,-0.0883 -0.03172,-0.15586 -0.03034,-0.069 -0.102066,-0.11586 -0.05931,-0.04 -0.140687,-0.0552 -0.08138,-0.0165 -0.19172,-0.0165 h -0.321373 v 0.77516 h 0.275857 q 0.129652,0 0.226202,-0.0221 0.09655,-0.0234 0.164134,-0.0855 0.06207,-0.0579 0.09103,-0.13241 0.03034,-0.0759 0.03034,-0.19172 z"
         style="stroke-width:0.07061918"
         id="path1752"
         inkscape:connector-curvature="0" />
      <path
         d="m 64.939347,209.19644 h -1.353075 v -2.05375 h 1.353075 v 0.24276 H 63.85937 v 0.56274 h 1.079977 v 0.24276 H 63.85937 v 0.76274 h 1.079977 z"
         style="stroke-width:0.07061918"
         id="path1754"
         inkscape:connector-curvature="0" />
      <path
         d="m 66.959993,209.04748 q -0.07586,0.0331 -0.137928,0.0621 -0.06069,0.029 -0.159997,0.0607 -0.08414,0.0262 -0.183444,0.0441 -0.09793,0.0193 -0.216547,0.0193 -0.223444,0 -0.406888,-0.0621 -0.182065,-0.0634 -0.317235,-0.19723 -0.132411,-0.13103 -0.206892,-0.33241 -0.07448,-0.20275 -0.07448,-0.47033 0,-0.25379 0.07172,-0.45379 0.07172,-0.19999 0.206892,-0.33792 0.131032,-0.13379 0.315855,-0.20413 0.186203,-0.0704 0.412405,-0.0704 0.165514,0 0.329648,0.04 0.165514,0.04 0.366889,0.14069 v 0.32413 h -0.02069 q -0.169652,-0.14207 -0.336545,-0.20689 -0.166893,-0.0648 -0.357233,-0.0648 -0.155859,0 -0.281374,0.051 -0.124135,0.0497 -0.222064,0.15586 -0.09517,0.10345 -0.148962,0.26207 -0.05241,0.15723 -0.05241,0.36413 0,0.21654 0.05793,0.3724 0.05931,0.15586 0.151721,0.25379 0.09655,0.10207 0.224822,0.15172 0.129653,0.0483 0.273098,0.0483 0.197237,0 0.369647,-0.0676 0.172411,-0.0676 0.322752,-0.20275 h 0.01931 z"
         style="stroke-width:0.07061918"
         id="path1756"
         inkscape:connector-curvature="0" />
      <path
         d="m 68.813747,207.38545 h -0.733778 v 1.81099 h -0.273097 v -1.81099 h -0.733778 v -0.24276 h 1.740653 z"
         style="stroke-width:0.07061918"
         id="path1758"
         inkscape:connector-curvature="0" />
      <path
         d="m 69.816484,209.19644 h -0.811017 v -0.20965 h 0.26896 v -1.63445 h -0.26896 v -0.20965 h 0.811017 v 0.20965 h -0.26896 v 1.63445 h 0.26896 z"
         style="stroke-width:0.07061918"
         id="path1760"
         inkscape:connector-curvature="0" />
      <path
         d="m 71.815062,207.37855 q 0.125514,0.13793 0.19172,0.33792 0.06758,0.2 0.06758,0.45379 0,0.25378 -0.06896,0.45516 -0.06758,0.2 -0.19034,0.33379 -0.126894,0.1393 -0.300684,0.20965 -0.17241,0.0703 -0.394474,0.0703 -0.216547,0 -0.394474,-0.0717 -0.176548,-0.0717 -0.300684,-0.20827 -0.124135,-0.13655 -0.19172,-0.33517 -0.0662,-0.19862 -0.0662,-0.45378 0,-0.25103 0.0662,-0.44965 0.06621,-0.19999 0.1931,-0.34206 0.121376,-0.13517 0.300683,-0.20689 0.180686,-0.0717 0.393095,-0.0717 0.220685,0 0.395854,0.0731 0.176548,0.0717 0.299304,0.20551 z m -0.02483,0.79171 q 0,-0.39999 -0.179306,-0.61654 -0.179307,-0.21793 -0.489645,-0.21793 -0.313097,0 -0.492403,0.21793 -0.177927,0.21655 -0.177927,0.61654 0,0.40413 0.182065,0.61929 0.182065,0.21379 0.488265,0.21379 0.306201,0 0.486886,-0.21379 0.182065,-0.21516 0.182065,-0.61929 z"
         style="stroke-width:0.07061918"
         id="path1762"
         inkscape:connector-curvature="0" />
      <path
         d="M 74.074324,209.19644 H 73.7364 l -0.973772,-1.8372 v 1.8372 h -0.255167 v -2.05375 H 72.9309 l 0.888257,1.67721 v -1.67721 h 0.255167 z"
         style="stroke-width:0.07061918"
         id="path1764"
         inkscape:connector-curvature="0" />
    </g>
    <g
       aria-label="RESET"
       transform="matrix(1.0062354,0,0,0.99380323,-3.3261906,4.8758928)"
       style="font-style:normal;font-weight:normal;font-size:2.82476735px;line-height:1.25;font-family:sans-serif;letter-spacing:0px;word-spacing:0px;fill:#000000;fill-opacity:1;stroke:none;stroke-width:0.07061918"
       id="text1607">
      <path
         d="m 110.09762,223.83926 h -0.35447 l -0.68689,-0.81653 h -0.38482 v 0.81653 h -0.27309 v -2.05375 h 0.57516 q 0.1862,0 0.31033,0.0248 0.12414,0.0234 0.22345,0.0855 0.11172,0.0703 0.17379,0.17792 0.0634,0.10621 0.0634,0.27034 0,0.22207 -0.11172,0.37241 -0.11172,0.14896 -0.30758,0.22482 z m -0.63861,-1.47583 q 0,-0.0883 -0.0317,-0.15586 -0.0303,-0.069 -0.10207,-0.11586 -0.0593,-0.04 -0.14068,-0.0552 -0.0814,-0.0165 -0.19172,-0.0165 h -0.32138 v 0.77516 h 0.27586 q 0.12965,0 0.2262,-0.0221 0.0965,-0.0234 0.16414,-0.0855 0.0621,-0.0579 0.091,-0.13241 0.0303,-0.0759 0.0303,-0.19172 z"
         style="stroke-width:0.07061918"
         id="path1737"
         inkscape:connector-curvature="0" />
      <path
         d="m 111.71552,223.83926 h -1.35308 v -2.05375 h 1.35308 v 0.24276 h -1.07998 v 0.56274 h 1.07998 v 0.24276 h -1.07998 v 0.76274 h 1.07998 z"
         style="stroke-width:0.07061918"
         id="path1739"
         inkscape:connector-curvature="0" />
      <path
         d="m 113.64237,223.25307 q 0,0.12 -0.0566,0.23724 -0.0552,0.11723 -0.15586,0.19861 -0.11034,0.0883 -0.25792,0.13793 -0.14621,0.0496 -0.3531,0.0496 -0.22206,0 -0.39999,-0.0414 -0.17655,-0.0414 -0.35999,-0.12276 v -0.34206 h 0.0193 q 0.15586,0.12965 0.35999,0.19999 0.20413,0.0703 0.38344,0.0703 0.25379,0 0.39447,-0.0952 0.14207,-0.0952 0.14207,-0.25379 0,-0.13655 -0.0676,-0.20138 -0.0662,-0.0648 -0.20276,-0.10068 -0.10344,-0.0276 -0.22482,-0.0455 -0.12,-0.0179 -0.25517,-0.0455 -0.2731,-0.0579 -0.40551,-0.19723 -0.13103,-0.14069 -0.13103,-0.36551 0,-0.25793 0.21793,-0.42206 0.21792,-0.16552 0.55309,-0.16552 0.21655,0 0.39723,0.0414 0.18069,0.0414 0.32,0.10207 v 0.32275 h -0.0193 q -0.11724,-0.0993 -0.30896,-0.16413 -0.19034,-0.0662 -0.39034,-0.0662 -0.21931,0 -0.3531,0.091 -0.13241,0.091 -0.13241,0.23448 0,0.12827 0.0662,0.20138 0.0662,0.0731 0.2331,0.11172 0.0883,0.0193 0.25103,0.0469 0.16275,0.0276 0.27585,0.0565 0.22896,0.0607 0.34482,0.18345 0.11586,0.12275 0.11586,0.34344 z"
         style="stroke-width:0.07061918"
         id="path1741"
         inkscape:connector-curvature="0" />
      <path
         d="m 115.43406,223.83926 h -1.35308 v -2.05375 h 1.35308 v 0.24276 h -1.07998 v 0.56274 h 1.07998 v 0.24276 h -1.07998 v 0.76274 h 1.07998 z"
         style="stroke-width:0.07061918"
         id="path1743"
         inkscape:connector-curvature="0" />
      <path
         d="m 117.33333,222.02827 h -0.73378 v 1.81099 h -0.2731 v -1.81099 h -0.73377 v -0.24276 h 1.74065 z"
         style="stroke-width:0.07061918"
         id="path1745"
         inkscape:connector-curvature="0" />
    </g>
    <g
       aria-label="NUM STEPS"
       transform="matrix(1.0062354,0,0,0.99380323,-5.178274,15.08125)"
       style="font-style:normal;font-weight:normal;font-size:2.82476735px;line-height:1.25;font-family:sans-serif;letter-spacing:0px;word-spacing:0px;fill:#000000;fill-opacity:1;stroke:none;stroke-width:0.07061918"
       id="text1611">
      <path
         d="m 125.55402,209.38663 h -0.33792 l -0.97377,-1.83721 v 1.83721 h -0.25517 v -2.05375 h 0.42344 l 0.88826,1.6772 v -1.6772 h 0.25516 z"
         style="stroke-width:0.07061918"
         id="path1720"
         inkscape:connector-curvature="0" />
      <path
         d="m 127.64639,208.56182 q 0,0.22344 -0.0496,0.39033 -0.0483,0.16552 -0.16,0.27586 -0.1062,0.10483 -0.24827,0.1531 -0.14207,0.0483 -0.33103,0.0483 -0.1931,0 -0.33654,-0.051 -0.14345,-0.051 -0.24138,-0.15034 -0.11172,-0.1131 -0.16137,-0.2731 -0.0483,-0.15999 -0.0483,-0.39309 v -1.22894 h 0.2731 v 1.24273 q 0,0.16689 0.0221,0.26344 0.0235,0.0966 0.0772,0.17517 0.0607,0.0897 0.16413,0.13517 0.10483,0.0455 0.25103,0.0455 0.14759,0 0.25103,-0.0441 0.10345,-0.0455 0.16552,-0.13655 0.0538,-0.0786 0.0759,-0.17931 0.0234,-0.10206 0.0234,-0.2524 v -1.24963 h 0.2731 z"
         style="stroke-width:0.07061918"
         id="path1722"
         inkscape:connector-curvature="0" />
      <path
         d="m 129.99807,209.38663 h -0.2731 v -1.76962 l -0.57102,1.20411 h -0.16276 l -0.56688,-1.20411 v 1.76962 h -0.25517 v -2.05375 h 0.37241 l 0.54757,1.14342 0.52964,-1.14342 h 0.37931 z"
         style="stroke-width:0.07061918"
         id="path1724"
         inkscape:connector-curvature="0" />
      <path
         d="m 133.038,208.80043 q 0,0.12 -0.0566,0.23724 -0.0552,0.11724 -0.15586,0.19862 -0.11034,0.0883 -0.25792,0.13792 -0.14621,0.0497 -0.3531,0.0497 -0.22206,0 -0.39999,-0.0414 -0.17655,-0.0414 -0.35999,-0.12276 v -0.34206 h 0.0193 q 0.15586,0.12965 0.35999,0.2 0.20413,0.0703 0.38344,0.0703 0.25379,0 0.39447,-0.0952 0.14207,-0.0952 0.14207,-0.25379 0,-0.13655 -0.0676,-0.20137 -0.0662,-0.0648 -0.20275,-0.10069 -0.10345,-0.0276 -0.22482,-0.0455 -0.12,-0.0179 -0.25517,-0.0455 -0.2731,-0.0579 -0.40551,-0.19724 -0.13103,-0.14069 -0.13103,-0.36551 0,-0.25792 0.21793,-0.42206 0.21792,-0.16551 0.55309,-0.16551 0.21655,0 0.39723,0.0414 0.18069,0.0414 0.31999,0.10206 v 0.32275 h -0.0193 q -0.11723,-0.0993 -0.30895,-0.16413 -0.19035,-0.0662 -0.39034,-0.0662 -0.21931,0 -0.3531,0.091 -0.13241,0.091 -0.13241,0.23447 0,0.12828 0.0662,0.20138 0.0662,0.0731 0.2331,0.11172 0.0883,0.0193 0.25103,0.0469 0.16275,0.0276 0.27585,0.0565 0.22896,0.0607 0.34482,0.18344 0.11586,0.12276 0.11586,0.34344 z"
         style="stroke-width:0.07061918"
         id="path1726"
         inkscape:connector-curvature="0" />
      <path
         d="m 134.94141,207.57563 h -0.73378 v 1.811 h -0.2731 v -1.811 h -0.73377 v -0.24275 h 1.74065 z"
         style="stroke-width:0.07061918"
         id="path1728"
         inkscape:connector-curvature="0" />
      <path
         d="m 136.5731,209.38663 h -1.35308 v -2.05375 h 1.35308 v 0.24275 h -1.07998 v 0.56275 h 1.07998 v 0.24275 h -1.07998 v 0.76274 h 1.07998 z"
         style="stroke-width:0.07061918"
         id="path1730"
         inkscape:connector-curvature="0" />
      <path
         d="m 138.35099,207.95355 q 0,0.13655 -0.0483,0.25379 -0.0469,0.11586 -0.13241,0.20138 -0.10621,0.1062 -0.25103,0.15999 -0.14483,0.0524 -0.36551,0.0524 h -0.2731 v 0.7655 h -0.2731 v -2.05375 h 0.55723 q 0.18482,0 0.3131,0.0317 0.12827,0.0303 0.22758,0.0966 0.11724,0.0786 0.18068,0.19586 0.0648,0.11724 0.0648,0.29654 z m -0.28413,0.007 q 0,-0.1062 -0.0372,-0.18482 -0.0372,-0.0786 -0.1131,-0.12828 -0.0662,-0.0427 -0.15172,-0.0607 -0.0841,-0.0193 -0.21379,-0.0193 h -0.27034 v 0.82067 h 0.23034 q 0.16551,0 0.26896,-0.029 0.10344,-0.0303 0.16827,-0.0952 0.0648,-0.0662 0.091,-0.1393 0.0276,-0.0731 0.0276,-0.16414 z"
         style="stroke-width:0.07061918"
         id="path1732"
         inkscape:connector-curvature="0" />
      <path
         d="m 140.20474,208.80043 q 0,0.12 -0.0565,0.23724 -0.0552,0.11724 -0.15585,0.19862 -0.11035,0.0883 -0.25793,0.13792 -0.1462,0.0497 -0.3531,0.0497 -0.22206,0 -0.39999,-0.0414 -0.17655,-0.0414 -0.35999,-0.12276 v -0.34206 h 0.0193 q 0.15586,0.12965 0.35999,0.2 0.20414,0.0703 0.38344,0.0703 0.25379,0 0.39448,-0.0952 0.14206,-0.0952 0.14206,-0.25379 0,-0.13655 -0.0676,-0.20137 -0.0662,-0.0648 -0.20276,-0.10069 -0.10344,-0.0276 -0.22482,-0.0455 -0.12,-0.0179 -0.25517,-0.0455 -0.27309,-0.0579 -0.4055,-0.19724 -0.13104,-0.14069 -0.13104,-0.36551 0,-0.25792 0.21793,-0.42206 0.21793,-0.16551 0.55309,-0.16551 0.21655,0 0.39723,0.0414 0.18069,0.0414 0.32,0.10206 v 0.32275 h -0.0193 q -0.11724,-0.0993 -0.30896,-0.16413 -0.19034,-0.0662 -0.39034,-0.0662 -0.2193,0 -0.35309,0.091 -0.13241,0.091 -0.13241,0.23447 0,0.12828 0.0662,0.20138 0.0662,0.0731 0.2331,0.11172 0.0883,0.0193 0.25103,0.0469 0.16275,0.0276 0.27585,0.0565 0.22897,0.0607 0.34482,0.18344 0.11586,0.12276 0.11586,0.34344 z"
         style="stroke-width:0.07061918"
         id="path1734"
         inkscape:connector-curvature="0" />
    </g>
    <g
       aria-label="BACKTRACK"
       transform="matrix(1.0062354,0,0,0.99380323,2.4946428,-2.1166667)"
       style="font-style:normal;font-weight:normal;font-size:2.82476735px;line-height:1.25;font-family:sans-serif;letter-spacing:0px;word-spacing:0px;fill:#000000;fill-opacity:1;stroke:none;stroke-width:0.07061918"
       id="text1615">
      <path
         d="m 91.916853,244.50621 q 0,0.1531 -0.05793,0.27034 -0.05793,0.11724 -0.155859,0.1931 -0.11586,0.091 -0.255167,0.12965 -0.137928,0.0386 -0.351717,0.0386 h -0.72826 v -2.05375 h 0.608263 q 0.224823,0 0.336545,0.0166 0.111721,0.0165 0.213788,0.069 0.113101,0.0593 0.164135,0.1531 0.05103,0.0924 0.05103,0.22206 0,0.14621 -0.07448,0.24965 -0.07448,0.10207 -0.198617,0.16414 v 0.011 q 0.208272,0.0428 0.328269,0.18345 0.119998,0.1393 0.119998,0.35309 z m -0.459301,-0.92549 q 0,-0.0745 -0.02483,-0.12552 -0.02483,-0.051 -0.08,-0.0828 -0.06483,-0.0372 -0.157238,-0.0455 -0.09241,-0.01 -0.228961,-0.01 h -0.32551 v 0.59309 h 0.353096 q 0.128273,0 0.204133,-0.0124 0.07586,-0.0138 0.140687,-0.0552 0.06483,-0.0414 0.09103,-0.10621 0.02759,-0.0662 0.02759,-0.15585 z m 0.175169,0.93653 q 0,-0.12414 -0.03724,-0.19724 -0.03724,-0.0731 -0.135169,-0.12413 -0.06621,-0.0345 -0.161376,-0.0441 -0.09379,-0.011 -0.228961,-0.011 h -0.428956 v 0.76413 h 0.361371 q 0.179307,0 0.293787,-0.0179 0.11448,-0.0193 0.187582,-0.069 0.07724,-0.0538 0.113101,-0.12275 0.03586,-0.069 0.03586,-0.17793 z"
         style="stroke-width:0.07061918"
         id="path1701"
         inkscape:connector-curvature="0" />
      <path
         d="m 93.923706,245.13792 h -0.291028 l -0.201375,-0.5724 h -0.888257 l -0.201375,0.5724 h -0.277235 l 0.74757,-2.05375 h 0.36413 z m -0.576539,-0.80688 -0.359992,-1.00825 -0.361372,1.00825 z"
         style="stroke-width:0.07061918"
         id="path1703"
         inkscape:connector-curvature="0" />
      <path
         d="m 95.821597,244.98896 q -0.07586,0.0331 -0.137928,0.0621 -0.06069,0.029 -0.159997,0.0607 -0.08414,0.0262 -0.183444,0.0441 -0.09793,0.0193 -0.216547,0.0193 -0.223444,0 -0.406888,-0.0621 -0.182065,-0.0634 -0.317235,-0.19724 -0.132411,-0.13103 -0.206892,-0.33241 -0.07448,-0.20275 -0.07448,-0.47033 0,-0.25379 0.07172,-0.45378 0.07172,-0.2 0.206893,-0.33793 0.131031,-0.13379 0.315855,-0.20413 0.186203,-0.0703 0.412405,-0.0703 0.165514,0 0.329648,0.04 0.165514,0.04 0.366889,0.14069 v 0.32413 h -0.02069 q -0.169652,-0.14206 -0.336545,-0.20689 -0.166893,-0.0648 -0.357234,-0.0648 -0.155858,0 -0.281373,0.051 -0.124135,0.0496 -0.222064,0.15585 -0.09517,0.10345 -0.148963,0.26207 -0.05241,0.15724 -0.05241,0.36413 0,0.21655 0.05793,0.3724 0.05931,0.15586 0.15172,0.25379 0.09655,0.10207 0.224823,0.15172 0.129653,0.0483 0.273098,0.0483 0.197237,0 0.369647,-0.0676 0.17241,-0.0676 0.322752,-0.20275 h 0.01931 z"
         style="stroke-width:0.07061918"
         id="path1705"
         inkscape:connector-curvature="0" />
      <path
         d="m 97.861554,245.13792 h -0.354476 l -0.812396,-0.91446 -0.204134,0.21793 v 0.69653 h -0.273097 v -2.05375 h 0.273097 v 1.07171 l 0.99722,-1.07171 h 0.331028 l -0.917222,0.9655 z"
         style="stroke-width:0.07061918"
         id="path1707"
         inkscape:connector-curvature="0" />
      <path
         d="m 99.63393,243.32693 h -0.733778 v 1.81099 h -0.273097 v -1.81099 h -0.733778 v -0.24276 h 1.740653 z"
         style="stroke-width:0.07061918"
         id="path1709"
         inkscape:connector-curvature="0" />
      <path
         d="m 101.61182,245.13792 h -0.35448 l -0.68688,-0.81653 h -0.38482 v 0.81653 h -0.273096 v -2.05375 h 0.575156 q 0.18621,0 0.31034,0.0248 0.12414,0.0234 0.22345,0.0855 0.11172,0.0703 0.17379,0.17792 0.0634,0.10621 0.0634,0.27034 0,0.22207 -0.11172,0.37241 -0.11172,0.14896 -0.30758,0.22482 z m -0.63861,-1.47583 q 0,-0.0883 -0.0317,-0.15586 -0.0303,-0.069 -0.10207,-0.11585 -0.0593,-0.04 -0.14069,-0.0552 -0.0814,-0.0165 -0.19172,-0.0165 h -0.32137 v 0.77516 h 0.27586 q 0.12965,0 0.2262,-0.0221 0.0965,-0.0234 0.16413,-0.0855 0.0621,-0.0579 0.091,-0.13241 0.0303,-0.0759 0.0303,-0.19172 z"
         style="stroke-width:0.07061918"
         id="path1711"
         inkscape:connector-curvature="0" />
      <path
         d="m 103.49592,245.13792 h -0.29103 l -0.20138,-0.5724 h -0.88825 l -0.20138,0.5724 h -0.27723 l 0.74757,-2.05375 h 0.36413 z m -0.57654,-0.80688 -0.36,-1.00825 -0.36137,1.00825 z"
         style="stroke-width:0.07061918"
         id="path1713"
         inkscape:connector-curvature="0" />
      <path
         d="m 105.39381,244.98896 q -0.0759,0.0331 -0.13793,0.0621 -0.0607,0.029 -0.16,0.0607 -0.0841,0.0262 -0.18344,0.0441 -0.0979,0.0193 -0.21655,0.0193 -0.22344,0 -0.40689,-0.0621 -0.18206,-0.0634 -0.31723,-0.19724 -0.13241,-0.13103 -0.20689,-0.33241 -0.0745,-0.20275 -0.0745,-0.47033 0,-0.25379 0.0717,-0.45378 0.0717,-0.2 0.20689,-0.33793 0.13103,-0.13379 0.31585,-0.20413 0.18621,-0.0703 0.41241,-0.0703 0.16551,0 0.32965,0.04 0.16551,0.04 0.36689,0.14069 v 0.32413 h -0.0207 q -0.16965,-0.14206 -0.33655,-0.20689 -0.16689,-0.0648 -0.35723,-0.0648 -0.15586,0 -0.28137,0.051 -0.12414,0.0496 -0.22207,0.15585 -0.0952,0.10345 -0.14896,0.26207 -0.0524,0.15724 -0.0524,0.36413 0,0.21655 0.0579,0.3724 0.0593,0.15586 0.15172,0.25379 0.0966,0.10207 0.22482,0.15172 0.12965,0.0483 0.2731,0.0483 0.19723,0 0.36964,-0.0676 0.17242,-0.0676 0.32276,-0.20275 h 0.0193 z"
         style="stroke-width:0.07061918"
         id="path1715"
         inkscape:connector-curvature="0" />
      <path
         d="m 107.43376,245.13792 h -0.35447 l -0.8124,-0.91446 -0.20413,0.21793 v 0.69653 h -0.2731 v -2.05375 h 0.2731 v 1.07171 l 0.99722,-1.07171 h 0.33103 l -0.91723,0.9655 z"
         style="stroke-width:0.07061918"
         id="path1717"
         inkscape:connector-curvature="0" />
    </g>
    <g
       aria-label="MIN OCTAVE"
       transform="matrix(1.0062354,0,0,0.99380323,12.88899,0)"
       style="font-style:normal;font-weight:normal;font-size:2.82476735px;line-height:1.25;font-family:sans-serif;letter-spacing:0px;word-spacing:0px;fill:#000000;fill-opacity:1;stroke:none;stroke-width:0.07061918"
       id="text1619">
      <path
         d="m 60.455773,259.59061 h -0.273098 v -1.76962 l -0.571022,1.20411 h -0.162755 l -0.566885,-1.20411 v 1.76962 h -0.255167 v -2.05375 h 0.372406 l 0.547575,1.14342 0.529644,-1.14342 h 0.379302 z"
         style="stroke-width:0.07061918"
         id="path1682"
         inkscape:connector-curvature="0" />
      <path
         d="m 61.734366,259.59061 h -0.811017 v -0.20965 h 0.26896 v -1.63445 h -0.26896 v -0.20965 h 0.811017 v 0.20965 h -0.268959 v 1.63445 h 0.268959 z"
         style="stroke-width:0.07061918"
         id="path1684"
         inkscape:connector-curvature="0" />
      <path
         d="M 63.768806,259.59061 H 63.430882 L 62.45711,257.7534 v 1.83721 h -0.255167 v -2.05375 h 0.423439 l 0.888257,1.6772 v -1.6772 h 0.255167 z"
         style="stroke-width:0.07061918"
         id="path1686"
         inkscape:connector-curvature="0" />
      <path
         d="m 66.839085,257.77271 q 0.125515,0.13793 0.19172,0.33793 0.06758,0.19999 0.06758,0.45378 0,0.25379 -0.06896,0.45516 -0.06758,0.2 -0.190341,0.33379 -0.126894,0.13931 -0.300683,0.20965 -0.17241,0.0703 -0.394475,0.0703 -0.216547,0 -0.394474,-0.0717 -0.176548,-0.0717 -0.300683,-0.20827 -0.124135,-0.13655 -0.19172,-0.33516 -0.06621,-0.19862 -0.06621,-0.45379 0,-0.25103 0.06621,-0.44964 0.0662,-0.2 0.193099,-0.34207 0.121377,-0.13517 0.300683,-0.20689 0.180686,-0.0717 0.393095,-0.0717 0.220685,0 0.395854,0.0731 0.176548,0.0717 0.299305,0.20551 z m -0.02483,0.79171 q 0,-0.39999 -0.179307,-0.61654 -0.179306,-0.21792 -0.489644,-0.21792 -0.313097,0 -0.492404,0.21792 -0.177927,0.21655 -0.177927,0.61654 0,0.40413 0.182065,0.6193 0.182065,0.21379 0.488266,0.21379 0.3062,0 0.486886,-0.21379 0.182065,-0.21517 0.182065,-0.6193 z"
         style="stroke-width:0.07061918"
         id="path1688"
         inkscape:connector-curvature="0" />
      <path
         d="m 69.117657,259.44164 q -0.07586,0.0331 -0.137928,0.0621 -0.06069,0.029 -0.159997,0.0607 -0.08414,0.0262 -0.183444,0.0441 -0.09793,0.0193 -0.216547,0.0193 -0.223444,0 -0.406888,-0.0621 -0.182065,-0.0635 -0.317235,-0.19724 -0.132411,-0.13103 -0.206892,-0.3324 -0.07448,-0.20276 -0.07448,-0.47034 0,-0.25379 0.07172,-0.45378 0.07172,-0.2 0.206892,-0.33793 0.131031,-0.13379 0.315855,-0.20413 0.186203,-0.0703 0.412405,-0.0703 0.165514,0 0.329648,0.04 0.165514,0.04 0.366889,0.14068 v 0.32413 h -0.02069 q -0.169652,-0.14206 -0.336545,-0.20689 -0.166893,-0.0648 -0.357234,-0.0648 -0.155858,0 -0.281373,0.051 -0.124135,0.0496 -0.222064,0.15586 -0.09517,0.10344 -0.148963,0.26206 -0.05241,0.15724 -0.05241,0.36413 0,0.21655 0.05793,0.37241 0.05931,0.15586 0.151721,0.25378 0.09655,0.10207 0.224822,0.15173 0.129653,0.0483 0.273098,0.0483 0.197237,0 0.369647,-0.0676 0.17241,-0.0676 0.322752,-0.20276 h 0.01931 z"
         style="stroke-width:0.07061918"
         id="path1690"
         inkscape:connector-curvature="0" />
      <path
         d="m 70.97141,257.77961 h -0.733777 v 1.811 h -0.273098 v -1.811 h -0.733777 v -0.24275 h 1.740652 z"
         style="stroke-width:0.07061918"
         id="path1692"
         inkscape:connector-curvature="0" />
      <path
         d="m 72.869301,259.59061 h -0.291028 l -0.201376,-0.5724 h -0.888256 l -0.201375,0.5724 H 71.01003 l 0.74757,-2.05375 h 0.364131 z m -0.57654,-0.80688 -0.359992,-1.00826 -0.361372,1.00826 z"
         style="stroke-width:0.07061918"
         id="path1694"
         inkscape:connector-curvature="0" />
      <path
         d="m 74.800295,257.53686 -0.74757,2.05375 h -0.364131 l -0.74757,-2.05375 h 0.292408 l 0.644124,1.80686 0.644124,-1.80686 z"
         style="stroke-width:0.07061918"
         id="path1696"
         inkscape:connector-curvature="0" />
      <path
         d="m 76.465086,259.59061 h -1.353075 v -2.05375 h 1.353075 v 0.24275 h -1.079977 v 0.56275 h 1.079977 v 0.24275 h -1.079977 v 0.76274 h 1.079977 z"
         style="stroke-width:0.07061918"
         id="path1698"
         inkscape:connector-curvature="0" />
    </g>
    <g
       aria-label="MAX OCTAVE"
       transform="matrix(1.0062354,0,0,0.99380323,-12.133037,-1.1339286)"
       style="font-style:normal;font-weight:normal;font-size:2.82476735px;line-height:1.25;font-family:sans-serif;letter-spacing:0px;word-spacing:0px;fill:#000000;fill-opacity:1;stroke:none;stroke-width:0.07061918"
       id="text1623">
      <path
         d="m 126.56735,260.7316 h -0.2731 v -1.76962 l -0.57102,1.20411 h -0.16276 l -0.56688,-1.20411 v 1.76962 h -0.25517 v -2.05375 h 0.3724 l 0.54758,1.14342 0.52964,-1.14342 h 0.37931 z"
         style="stroke-width:0.07061918"
         id="path1663"
         inkscape:connector-curvature="0" />
      <path
         d="m 128.74109,260.7316 h -0.29103 l -0.20137,-0.5724 h -0.88826 l -0.20137,0.5724 h -0.27724 l 0.74757,-2.05375 h 0.36413 z m -0.57654,-0.80688 -0.35999,-1.00826 -0.36137,1.00826 z"
         style="stroke-width:0.07061918"
         id="path1665"
         inkscape:connector-curvature="0" />
      <path
         d="m 130.61967,258.67785 -0.70895,1.01515 0.70757,1.0386 h -0.31585 l -0.55999,-0.8455 -0.57378,0.8455 h -0.29793 l 0.71585,-1.02619 -0.69929,-1.02756 h 0.31447 l 0.55309,0.83446 0.56551,-0.83446 z"
         style="stroke-width:0.07061918"
         id="path1667"
         inkscape:connector-curvature="0" />
      <path
         d="m 133.5134,258.91371 q 0.12552,0.13792 0.19172,0.33792 0.0676,0.2 0.0676,0.45378 0,0.25379 -0.069,0.45517 -0.0676,0.19999 -0.19034,0.33378 -0.12689,0.13931 -0.30068,0.20965 -0.17241,0.0704 -0.39447,0.0704 -0.21655,0 -0.39448,-0.0717 -0.17655,-0.0717 -0.30068,-0.20827 -0.12414,-0.13655 -0.19172,-0.33516 -0.0662,-0.19862 -0.0662,-0.45379 0,-0.25103 0.0662,-0.44964 0.0662,-0.2 0.1931,-0.34206 0.12137,-0.13517 0.30068,-0.2069 0.18069,-0.0717 0.3931,-0.0717 0.22068,0 0.39585,0.0731 0.17655,0.0717 0.2993,0.20552 z m -0.0248,0.7917 q 0,-0.39999 -0.17931,-0.61654 -0.17931,-0.21792 -0.48964,-0.21792 -0.3131,0 -0.49241,0.21792 -0.17792,0.21655 -0.17792,0.61654 0,0.40413 0.18206,0.6193 0.18207,0.21379 0.48827,0.21379 0.3062,0 0.48688,-0.21379 0.18207,-0.21517 0.18207,-0.6193 z"
         style="stroke-width:0.07061918"
         id="path1669"
         inkscape:connector-curvature="0" />
      <path
         d="m 135.79198,260.58264 q -0.0759,0.0331 -0.13793,0.0621 -0.0607,0.029 -0.16,0.0607 -0.0841,0.0262 -0.18344,0.0441 -0.0979,0.0193 -0.21655,0.0193 -0.22344,0 -0.40689,-0.0621 -0.18206,-0.0634 -0.31723,-0.19724 -0.13241,-0.13103 -0.20689,-0.3324 -0.0745,-0.20276 -0.0745,-0.47034 0,-0.25379 0.0717,-0.45378 0.0717,-0.2 0.20689,-0.33793 0.13103,-0.13379 0.31585,-0.20413 0.18621,-0.0703 0.41241,-0.0703 0.16551,0 0.32965,0.04 0.16551,0.04 0.36689,0.14068 v 0.32413 h -0.0207 q -0.16965,-0.14206 -0.33655,-0.20689 -0.16689,-0.0648 -0.35723,-0.0648 -0.15586,0 -0.28137,0.051 -0.12414,0.0497 -0.22207,0.15586 -0.0952,0.10344 -0.14896,0.26206 -0.0524,0.15724 -0.0524,0.36413 0,0.21655 0.0579,0.37241 0.0593,0.15586 0.15172,0.25379 0.0966,0.10206 0.22482,0.15172 0.12965,0.0483 0.2731,0.0483 0.19723,0 0.36964,-0.0676 0.17241,-0.0676 0.32276,-0.20276 h 0.0193 z"
         style="stroke-width:0.07061918"
         id="path1671"
         inkscape:connector-curvature="0" />
      <path
         d="m 137.64573,258.9206 h -0.73378 v 1.811 h -0.2731 v -1.811 h -0.73377 v -0.24275 h 1.74065 z"
         style="stroke-width:0.07061918"
         id="path1673"
         inkscape:connector-curvature="0" />
      <path
         d="m 139.54362,260.7316 h -0.29103 l -0.20137,-0.5724 h -0.88826 l -0.20138,0.5724 h -0.27723 l 0.74757,-2.05375 h 0.36413 z m -0.57654,-0.80688 -0.35999,-1.00826 -0.36137,1.00826 z"
         style="stroke-width:0.07061918"
         id="path1675"
         inkscape:connector-curvature="0" />
      <path
         d="m 141.47461,258.67785 -0.74757,2.05375 h -0.36413 l -0.74757,-2.05375 h 0.29241 l 0.64412,1.80686 0.64413,-1.80686 z"
         style="stroke-width:0.07061918"
         id="path1677"
         inkscape:connector-curvature="0" />
      <path
         d="m 143.13941,260.7316 h -1.35308 v -2.05375 h 1.35308 v 0.24275 h -1.07998 v 0.56275 h 1.07998 v 0.24275 h -1.07998 v 0.76274 h 1.07998 z"
         style="stroke-width:0.07061918"
         id="path1679"
         inkscape:connector-curvature="0" />
    </g>
    <g
       aria-label="V/OCT"
       transform="matrix(1.0062354,0,0,0.99380323,-1.5119048,5.8208336)"
       style="font-style:normal;font-weight:normal;font-size:2.82476735px;line-height:1.25;font-family:sans-serif;letter-spacing:0px;word-spacing:0px;fill:#000000;fill-opacity:1;stroke:none;stroke-width:0.07061918"
       id="text1627">
      <path
         d="m 99.875502,281.11748 -0.747571,2.05375 h -0.36413 l -0.74757,-2.05375 h 0.292407 l 0.644125,1.80686 0.644124,-1.80686 z"
         style="stroke-width:0.07061918"
         id="path1652"
         inkscape:connector-curvature="0" />
      <path
         d="m 101.09754,281.02507 -0.98894,2.56547 h -0.238616 l 0.984806,-2.56547 z"
         style="stroke-width:0.07061918"
         id="path1654"
         inkscape:connector-curvature="0" />
      <path
         d="m 103.00371,281.35334 q 0.12552,0.13793 0.19172,0.33793 0.0676,0.19999 0.0676,0.45378 0,0.25379 -0.069,0.45516 -0.0676,0.2 -0.19034,0.33379 -0.12689,0.13931 -0.30068,0.20965 -0.17241,0.0703 -0.39448,0.0703 -0.21654,0 -0.39447,-0.0717 -0.17655,-0.0717 -0.30068,-0.20827 -0.12414,-0.13655 -0.19172,-0.33517 -0.0662,-0.19861 -0.0662,-0.45378 0,-0.25103 0.0662,-0.44965 0.0662,-0.19999 0.19309,-0.34206 0.12138,-0.13517 0.30069,-0.20689 0.18068,-0.0717 0.39309,-0.0717 0.22069,0 0.39586,0.0731 0.17654,0.0717 0.2993,0.20551 z m -0.0248,0.79171 q 0,-0.39999 -0.1793,-0.61654 -0.17931,-0.21793 -0.48965,-0.21793 -0.31309,0 -0.4924,0.21793 -0.17793,0.21655 -0.17793,0.61654 0,0.40413 0.18207,0.6193 0.18206,0.21378 0.48826,0.21378 0.3062,0 0.48689,-0.21378 0.18206,-0.21517 0.18206,-0.6193 z"
         style="stroke-width:0.07061918"
         id="path1656"
         inkscape:connector-curvature="0" />
      <path
         d="m 105.28228,283.02227 q -0.0759,0.0331 -0.13793,0.0621 -0.0607,0.029 -0.15999,0.0607 -0.0841,0.0262 -0.18345,0.0441 -0.0979,0.0193 -0.21654,0.0193 -0.22345,0 -0.40689,-0.0621 -0.18207,-0.0634 -0.31724,-0.19724 -0.13241,-0.13103 -0.20689,-0.33241 -0.0745,-0.20275 -0.0745,-0.47033 0,-0.25379 0.0717,-0.45379 0.0717,-0.19999 0.2069,-0.33792 0.13103,-0.13379 0.31585,-0.20413 0.1862,-0.0704 0.41241,-0.0704 0.16551,0 0.32964,0.04 0.16552,0.04 0.36689,0.14069 v 0.32413 h -0.0207 q -0.16965,-0.14206 -0.33654,-0.20689 -0.16689,-0.0648 -0.35723,-0.0648 -0.15586,0 -0.28138,0.051 -0.12413,0.0497 -0.22206,0.15585 -0.0952,0.10345 -0.14896,0.26207 -0.0524,0.15724 -0.0524,0.36413 0,0.21655 0.0579,0.3724 0.0593,0.15586 0.15172,0.25379 0.0966,0.10207 0.22483,0.15172 0.12965,0.0483 0.27309,0.0483 0.19724,0 0.36965,-0.0676 0.17241,-0.0676 0.32275,-0.20275 h 0.0193 z"
         style="stroke-width:0.07061918"
         id="path1658"
         inkscape:connector-curvature="0" />
      <path
         d="m 107.13604,281.36024 h -0.73378 v 1.81099 h -0.2731 v -1.81099 h -0.73378 v -0.24276 h 1.74066 z"
         style="stroke-width:0.07061918"
         id="path1660"
         inkscape:connector-curvature="0" />
    </g>
    <g
       aria-label="TRANSPOSE"
       transform="matrix(1.0062354,0,0,0.99380323,-0.56696429,1.5875)"
       style="font-style:normal;font-weight:normal;font-size:2.82476735px;line-height:1.25;font-family:sans-serif;letter-spacing:0px;word-spacing:0px;fill:#000000;fill-opacity:1;stroke:none;stroke-width:0.07061918"
       id="text1631">
      <path
         d="m 94.837782,266.52726 h -0.733777 v 1.811 h -0.273098 v -1.811 H 93.09713 v -0.24275 h 1.740652 z"
         style="stroke-width:0.07061918"
         id="path1633"
         inkscape:connector-curvature="0" />
      <path
         d="m 96.815671,268.33826 h -0.354475 l -0.686882,-0.81654 h -0.384819 v 0.81654 h -0.273098 v -2.05375 h 0.57516 q 0.186203,0 0.310338,0.0248 0.124136,0.0235 0.223444,0.0855 0.111722,0.0703 0.173789,0.17793 0.06345,0.1062 0.06345,0.27034 0,0.22206 -0.111721,0.3724 -0.111722,0.14896 -0.30758,0.22482 z m -0.638607,-1.47583 q 0,-0.0883 -0.03172,-0.15586 -0.03034,-0.069 -0.102067,-0.11586 -0.05931,-0.04 -0.140687,-0.0552 -0.08138,-0.0166 -0.19172,-0.0166 h -0.321372 v 0.77515 h 0.275856 q 0.129652,0 0.226202,-0.0221 0.09655,-0.0234 0.164134,-0.0855 0.06207,-0.0579 0.09103,-0.13241 0.03034,-0.0759 0.03034,-0.19172 z"
         style="stroke-width:0.07061918"
         id="path1635"
         inkscape:connector-curvature="0" />
      <path
         d="m 98.699769,268.33826 h -0.291028 l -0.201375,-0.5724 h -0.888257 l -0.201375,0.5724 h -0.277236 l 0.747571,-2.05375 h 0.36413 z m -0.576539,-0.80688 -0.359993,-1.00826 -0.361371,1.00826 z"
         style="stroke-width:0.07061918"
         id="path1637"
         inkscape:connector-curvature="0" />
      <path
         d="m 100.57835,268.33826 h -0.33792 l -0.973777,-1.83721 v 1.83721 h -0.255167 v -2.05375 h 0.423439 l 0.888255,1.6772 v -1.6772 h 0.25517 z"
         style="stroke-width:0.07061918"
         id="path1639"
         inkscape:connector-curvature="0" />
      <path
         d="m 102.61693,267.75206 q 0,0.12 -0.0566,0.23724 -0.0552,0.11724 -0.15586,0.19862 -0.11034,0.0883 -0.25793,0.13792 -0.1462,0.0497 -0.35309,0.0497 -0.22207,0 -0.4,-0.0414 -0.17654,-0.0414 -0.35999,-0.12276 v -0.34206 h 0.0193 q 0.15586,0.12965 0.35999,0.2 0.20414,0.0703 0.38344,0.0703 0.25379,0 0.39448,-0.0952 0.14206,-0.0952 0.14206,-0.25379 0,-0.13655 -0.0676,-0.20137 -0.0662,-0.0648 -0.20275,-0.10069 -0.10345,-0.0276 -0.22483,-0.0455 -0.11999,-0.0179 -0.25516,-0.0455 -0.2731,-0.0579 -0.40551,-0.19724 -0.13103,-0.14069 -0.13103,-0.36551 0,-0.25792 0.21792,-0.42206 0.21793,-0.16551 0.55309,-0.16551 0.21655,0 0.39724,0.0414 0.18068,0.0414 0.31999,0.10206 v 0.32275 h -0.0193 q -0.11724,-0.0993 -0.30896,-0.16413 -0.19034,-0.0662 -0.39034,-0.0662 -0.2193,0 -0.35309,0.091 -0.13241,0.091 -0.13241,0.23447 0,0.12828 0.0662,0.20138 0.0662,0.0731 0.2331,0.11172 0.0883,0.0193 0.25103,0.0469 0.16276,0.0276 0.27586,0.0566 0.22896,0.0607 0.34482,0.18344 0.11586,0.12276 0.11586,0.34344 z"
         style="stroke-width:0.07061918"
         id="path1641"
         inkscape:connector-curvature="0" />
      <path
         d="m 104.39896,266.90518 q 0,0.13655 -0.0483,0.25379 -0.0469,0.11586 -0.13241,0.20138 -0.1062,0.1062 -0.25103,0.15999 -0.14482,0.0524 -0.36551,0.0524 h -0.27309 v 0.7655 h -0.2731 v -2.05375 h 0.55723 q 0.18482,0 0.31309,0.0317 0.12828,0.0303 0.22759,0.0965 0.11723,0.0786 0.18068,0.19586 0.0648,0.11724 0.0648,0.29654 z m -0.28413,0.007 q 0,-0.1062 -0.0372,-0.18482 -0.0373,-0.0786 -0.11311,-0.12828 -0.0662,-0.0427 -0.15172,-0.0607 -0.0841,-0.0193 -0.21378,-0.0193 h -0.27034 v 0.82067 h 0.23034 q 0.16551,0 0.26896,-0.029 0.10344,-0.0303 0.16827,-0.0952 0.0648,-0.0662 0.091,-0.13931 0.0276,-0.0731 0.0276,-0.16413 z"
         style="stroke-width:0.07061918"
         id="path1643"
         inkscape:connector-curvature="0" />
      <path
         d="m 106.29133,266.52036 q 0.12552,0.13793 0.19172,0.33793 0.0676,0.19999 0.0676,0.45378 0,0.25379 -0.069,0.45516 -0.0676,0.2 -0.19034,0.33379 -0.12689,0.13931 -0.30068,0.20965 -0.17241,0.0703 -0.39448,0.0703 -0.21654,0 -0.39447,-0.0717 -0.17655,-0.0717 -0.30068,-0.20827 -0.12414,-0.13655 -0.19172,-0.33516 -0.0662,-0.19862 -0.0662,-0.45379 0,-0.25103 0.0662,-0.44964 0.0662,-0.2 0.1931,-0.34207 0.12137,-0.13516 0.30068,-0.20689 0.18068,-0.0717 0.39309,-0.0717 0.22069,0 0.39586,0.0731 0.17655,0.0717 0.2993,0.20551 z m -0.0248,0.79171 q 0,-0.39999 -0.1793,-0.61654 -0.17931,-0.21792 -0.48965,-0.21792 -0.31309,0 -0.4924,0.21792 -0.17793,0.21655 -0.17793,0.61654 0,0.40413 0.18207,0.6193 0.18206,0.21379 0.48826,0.21379 0.3062,0 0.48689,-0.21379 0.18206,-0.21517 0.18206,-0.6193 z"
         style="stroke-width:0.07061918"
         id="path1645"
         inkscape:connector-curvature="0" />
      <path
         d="m 108.47611,267.75206 q 0,0.12 -0.0566,0.23724 -0.0552,0.11724 -0.15586,0.19862 -0.11034,0.0883 -0.25792,0.13792 -0.14621,0.0497 -0.3531,0.0497 -0.22206,0 -0.39999,-0.0414 -0.17655,-0.0414 -0.35999,-0.12276 v -0.34206 h 0.0193 q 0.15586,0.12965 0.35999,0.2 0.20413,0.0703 0.38344,0.0703 0.25379,0 0.39447,-0.0952 0.14207,-0.0952 0.14207,-0.25379 0,-0.13655 -0.0676,-0.20137 -0.0662,-0.0648 -0.20276,-0.10069 -0.10344,-0.0276 -0.22482,-0.0455 -0.12,-0.0179 -0.25517,-0.0455 -0.2731,-0.0579 -0.40551,-0.19724 -0.13103,-0.14069 -0.13103,-0.36551 0,-0.25792 0.21793,-0.42206 0.21792,-0.16551 0.55309,-0.16551 0.21655,0 0.39723,0.0414 0.18069,0.0414 0.32,0.10206 v 0.32275 h -0.0193 q -0.11724,-0.0993 -0.30896,-0.16413 -0.19034,-0.0662 -0.39034,-0.0662 -0.21931,0 -0.3531,0.091 -0.13241,0.091 -0.13241,0.23447 0,0.12828 0.0662,0.20138 0.0662,0.0731 0.2331,0.11172 0.0883,0.0193 0.25103,0.0469 0.16275,0.0276 0.27585,0.0566 0.22896,0.0607 0.34482,0.18344 0.11586,0.12276 0.11586,0.34344 z"
         style="stroke-width:0.07061918"
         id="path1647"
         inkscape:connector-curvature="0" />
      <path
         d="m 110.2678,268.33826 h -1.35308 v -2.05375 h 1.35308 v 0.24275 h -1.07998 v 0.56275 h 1.07998 v 0.24275 h -1.07998 v 0.76274 h 1.07998 z"
         style="stroke-width:0.07061918"
         id="path1649"
         inkscape:connector-curvature="0" />
    </g>
    <rect
       style="opacity:0.994;fill:#808080;fill-opacity:1;stroke:#020200;stroke-width:0;stroke-linejoin:miter;stroke-miterlimit:4;stroke-dasharray:none;stroke-dashoffset:0;stroke-opacity:0.95121951"
       id="rect1776"
       width="57.074402"
       height="8.53689"
       x="-7.7485118"
       y="272.80945" />
    <rect
       y="252.7012"
       x="-7.7485118"
       height="8.53689"
       width="57.074402"
       id="rect1778"
       style="opacity:0.994;fill:#808080;fill-opacity:1;stroke:#020200;stroke-width:0;stroke-linejoin:miter;stroke-miterlimit:4;stroke-dasharray:none;stroke-dashoffset:0;stroke-opacity:0.95121951" />
    <rect
       style="opacity:0.994;fill:#808080;fill-opacity:1;stroke:#020200;stroke-width:0;stroke-linejoin:miter;stroke-miterlimit:4;stroke-dasharray:none;stroke-dashoffset:0;stroke-opacity:0.95121951"
       id="rect1780"
       width="57.074402"
       height="8.53689"
       x="-7.7485118"
       y="222.53888" />
    <rect
       y="202.95959"
       x="-7.7485118"
       height="8.53689"
       width="57.074402"
       id="rect1782"
       style="opacity:0.994;fill:#808080;fill-opacity:1;stroke:#020200;stroke-width:0;stroke-linejoin:miter;stroke-miterlimit:4;stroke-dasharray:none;stroke-dashoffset:0;stroke-opacity:0.95121951" />
    <rect
       style="opacity:0.994;fill:#808080;fill-opacity:1;stroke:#020200;stroke-width:0;stroke-linejoin:miter;stroke-miterlimit:4;stroke-dasharray:none;stroke-dashoffset:0;stroke-opacity:0.95121951"
       id="rect1784"
       width="57.074402"
       height="8.53689"
       x="-7.7485118"
       y="182.85123" />
    <rect
       style="opacity:0.994;fill:#b3b3b3;fill-opacity:1;stroke:#020200;stroke-width:0;stroke-linejoin:miter;stroke-miterlimit:4;stroke-dasharray:none;stroke-dashoffset:0;stroke-opacity:0.95121951"
       id="rect1788"
       width="17.008928"
       height="11.90625"
       x="93.360123"
       y="272.20474" />
    <rect
       y="182.85123"
       x="153.64728"
       height="8.53689"
       width="57.074402"
       id="rect1790"
       style="opacity:0.994;fill:#808080;fill-opacity:1;stroke:#020200;stroke-width:0;stroke-linejoin:miter;stroke-miterlimit:4;stroke-dasharray:none;stroke-dashoffset:0;stroke-opacity:0.95121951" />
    <rect
       style="opacity:0.994;fill:#808080;fill-opacity:1;stroke:#020200;stroke-width:0;stroke-linejoin:miter;stroke-miterlimit:4;stroke-dasharray:none;stroke-dashoffset:0;stroke-opacity:0.95121951"
       id="rect1792"
       width="57.074402"
       height="8.53689"
       x="153.64735"
       y="202.95959" />
    <rect
       y="222.53888"
       x="153.64735"
       height="8.53689"
       width="57.074402"
       id="rect1794"
       style="opacity:0.994;fill:#808080;fill-opacity:1;stroke:#020200;stroke-width:0;stroke-linejoin:miter;stroke-miterlimit:4;stroke-dasharray:none;stroke-dashoffset:0;stroke-opacity:0.95121951" />
    <rect
       style="opacity:0.994;fill:#808080;fill-opacity:1;stroke:#020200;stroke-width:0;stroke-linejoin:miter;stroke-miterlimit:4;stroke-dasharray:none;stroke-dashoffset:0;stroke-opacity:0.95121951"
       id="rect1796"
       width="57.074402"
       height="8.53689"
       x="153.11812"
       y="252.7012" />
    <rect
       y="272.80945"
       x="153.64735"
       height="8.53689"
       width="57.074402"
       id="rect1798"
       style="opacity:0.994;fill:#808080;fill-opacity:1;stroke:#020200;stroke-width:0;stroke-linejoin:miter;stroke-miterlimit:4;stroke-dasharray:none;stroke-dashoffset:0;stroke-opacity:0.95121951" />
    <path
       style="fill:none;stroke:#000000;stroke-width:0.26458332px;stroke-linecap:butt;stroke-linejoin:miter;stroke-opacity:1"
       d="m 54.428575,242.15564 c -57.0744079,0 -57.0744079,0 -57.0744079,0 v -0.18899 0"
       id="path1806"
       inkscape:connector-curvature="0" />
    <path
       inkscape:connector-curvature="0"
       id="path1808"
       d="m 54.428575,222.57644 c -57.0744079,0 -57.0744079,0 -57.0744079,0 v -0.18899 0"
       style="fill:none;stroke:#000000;stroke-width:0.26458332px;stroke-linecap:butt;stroke-linejoin:miter;stroke-opacity:1" />
    <path
       style="fill:none;stroke:#000000;stroke-width:0.26458332px;stroke-linecap:butt;stroke-linejoin:miter;stroke-opacity:1"
       d="m 54.428575,231.04313 c -57.0744079,0 -57.0744079,0 -57.0744079,0 v -0.18899 0"
       id="path1810"
       inkscape:connector-curvature="0" />
    <path
       inkscape:connector-curvature="0"
       id="path1812"
       d="m 54.428575,252.73898 c -57.0744079,0 -57.0744079,0 -57.0744079,0 v -0.18899 0"
       style="fill:none;stroke:#000000;stroke-width:0.26458332px;stroke-linecap:butt;stroke-linejoin:miter;stroke-opacity:1" />
    <path
       style="fill:none;stroke:#000000;stroke-width:0.26458332px;stroke-linecap:butt;stroke-linejoin:miter;stroke-opacity:1"
       d="m 54.428575,261.20564 c -57.0744079,0 -57.0744079,0 -57.0744079,0 v -0.18899 0"
       id="path1814"
       inkscape:connector-curvature="0" />
    <path
       inkscape:connector-curvature="0"
       id="path1816"
       d="m 54.428575,272.84732 c -57.0744079,0 -57.0744079,0 -57.0744079,0 v -0.18899 0"
       style="fill:none;stroke:#000000;stroke-width:0.26458332px;stroke-linecap:butt;stroke-linejoin:miter;stroke-opacity:1" />
    <path
       style="fill:none;stroke:#000000;stroke-width:0.26458332px;stroke-linecap:butt;stroke-linejoin:miter;stroke-opacity:1"
       d="m 54.428575,281.31398 c -57.0744079,0 -57.0744079,0 -57.0744079,0 v -0.18899 0"
       id="path1818"
       inkscape:connector-curvature="0" />
    <path
       inkscape:connector-curvature="0"
       id="path1820"
       d="m 54.428575,211.46393 c -57.0744079,0 -57.0744079,0 -57.0744079,0 v -0.18899 0"
       style="fill:none;stroke:#000000;stroke-width:0.26458332px;stroke-linecap:butt;stroke-linejoin:miter;stroke-opacity:1" />
    <path
       style="fill:none;stroke:#000000;stroke-width:0.26458332px;stroke-linecap:butt;stroke-linejoin:miter;stroke-opacity:1"
       d="m 54.428575,202.99724 c -57.0744079,0 -57.0744079,0 -57.0744079,0 v -0.18899 0"
       id="path1822"
       inkscape:connector-curvature="0" />
    <path
       inkscape:connector-curvature="0"
       id="path1824"
       d="m 54.428575,191.35556 c -57.0744079,0 -57.0744079,0 -57.0744079,0 v -0.18899 0"
       style="fill:none;stroke:#000000;stroke-width:0.26458332px;stroke-linecap:butt;stroke-linejoin:miter;stroke-opacity:1" />
    <path
       style="fill:none;stroke:#000000;stroke-width:0.26458332px;stroke-linecap:butt;stroke-linejoin:miter;stroke-opacity:1"
       d="m 54.428575,182.8889 c -57.0744079,0 -57.0744079,0 -57.0744079,0 v -0.18899 0"
       id="path1826"
       inkscape:connector-curvature="0" />
    <path
       inkscape:connector-curvature="0"
       id="path1828"
       d="m 54.428575,172.30556 c -57.0744079,0 -57.0744079,0 -57.0744079,0 v -0.18899 0"
       style="fill:none;stroke:#000000;stroke-width:0.26458332px;stroke-linecap:butt;stroke-linejoin:miter;stroke-opacity:1" />
    <path
       style="fill:none;stroke:#000000;stroke-width:0.26458332px;stroke-linecap:butt;stroke-linejoin:miter;stroke-opacity:1"
       d="m 54.428575,292.42646 c -57.0744079,0 -57.0744079,0 -57.0744079,0 v -0.18899 0"
       id="path1830"
       inkscape:connector-curvature="0" />
    <path
       inkscape:connector-curvature="0"
       id="path1832"
       d="m 206.8286,292.42646 c -57.07443,0 -57.07443,0 -57.07443,0 v -0.18899 0"
       style="fill:none;stroke:#000000;stroke-width:0.26458332px;stroke-linecap:butt;stroke-linejoin:miter;stroke-opacity:1" />
    <path
       inkscape:connector-curvature="0"
       id="path1834"
       d="m 205.77026,242.15564 c -57.07443,0 -57.07443,0 -57.07443,0 v -0.18899 0"
       style="fill:none;stroke:#000000;stroke-width:0.26458332px;stroke-linecap:butt;stroke-linejoin:miter;stroke-opacity:1" />
    <path
       inkscape:connector-curvature="0"
       id="path1836"
       d="m 205.77026,231.04313 c -57.07443,0 -57.07443,0 -57.07443,0 v -0.18899 0"
       style="fill:none;stroke:#000000;stroke-width:0.26458332px;stroke-linecap:butt;stroke-linejoin:miter;stroke-opacity:1" />
    <path
       style="fill:none;stroke:#000000;stroke-width:0.26458332px;stroke-linecap:butt;stroke-linejoin:miter;stroke-opacity:1"
       d="m 205.77026,211.46393 c -57.07443,0 -57.07443,0 -57.07443,0 v -0.18899 0"
       id="path1838"
       inkscape:connector-curvature="0" />
    <path
       inkscape:connector-curvature="0"
       id="path1840"
       d="m 205.77026,202.99724 c -57.07443,0 -57.07443,0 -57.07443,0 v -0.18899 0"
       style="fill:none;stroke:#000000;stroke-width:0.26458332px;stroke-linecap:butt;stroke-linejoin:miter;stroke-opacity:1" />
    <path
       style="fill:none;stroke:#000000;stroke-width:0.26458332px;stroke-linecap:butt;stroke-linejoin:miter;stroke-opacity:1"
       d="m 205.77026,172.30556 c -57.07443,0 -57.07443,0 -57.07443,0 v -0.18899 0"
       id="path1842"
       inkscape:connector-curvature="0" />
    <path
       inkscape:connector-curvature="0"
       id="path1844"
       d="m 205.77026,182.8889 c -57.07444,0 -57.07444,0 -57.07444,0 v -0.18899 0"
       style="fill:none;stroke:#000000;stroke-width:0.26458332px;stroke-linecap:butt;stroke-linejoin:miter;stroke-opacity:1" />
    <path
       style="fill:none;stroke:#000000;stroke-width:0.26458332px;stroke-linecap:butt;stroke-linejoin:miter;stroke-opacity:1"
       d="m 205.77026,191.35556 c -57.07443,0 -57.07443,0 -57.07443,0 v -0.18899 0"
       id="path1846"
       inkscape:connector-curvature="0" />
    <path
       style="fill:none;stroke:#000000;stroke-width:0.26458332px;stroke-linecap:butt;stroke-linejoin:miter;stroke-opacity:1"
       d="m 205.77026,222.57644 c -57.07444,0 -57.07444,0 -57.07444,0 v -0.18899 0"
       id="path1848"
       inkscape:connector-curvature="0" />
    <path
       style="fill:none;stroke:#000000;stroke-width:0.26458332px;stroke-linecap:butt;stroke-linejoin:miter;stroke-opacity:1"
       d="m 205.77026,252.73898 c -57.07443,0 -57.07443,0 -57.07443,0 v -0.18899 0"
       id="path1850"
       inkscape:connector-curvature="0" />
    <path
       style="fill:none;stroke:#000000;stroke-width:0.26458332px;stroke-linecap:butt;stroke-linejoin:miter;stroke-opacity:1"
       d="m 206.8286,272.84732 c -57.07443,0 -57.07443,0 -57.07443,0 v -0.18899 0"
       id="path1852"
       inkscape:connector-curvature="0" />
    <path
       inkscape:connector-curvature="0"
       id="path1856"
       d="m 206.8286,281.31398 c -57.07443,0 -57.07443,0 -57.07443,0 v -0.18899 0"
       style="fill:none;stroke:#000000;stroke-width:0.26458332px;stroke-linecap:butt;stroke-linejoin:miter;stroke-opacity:1" />
    <path
       inkscape:connector-curvature="0"
       id="path1858"
       d="m 142.44945,172.30106 c -84.079985,0 -84.079985,0 -84.079985,0 v -0.1693 0"
       style="fill:none;stroke:#000000;stroke-width:0.30395079px;stroke-linecap:butt;stroke-linejoin:miter;stroke-opacity:1" />
    <path
       style="fill:none;stroke:#000000;stroke-width:0.31942025px;stroke-linecap:butt;stroke-linejoin:miter;stroke-opacity:1"
       d="m 150.58316,292.42183 c -97.301413,0 -97.301413,0 -97.301413,0 v -0.16157 0"
       id="path1862"
       inkscape:connector-curvature="0" />
    <path
       inkscape:connector-curvature="0"
       id="path2058"
       d="m 206.29944,261.20564 c -57.07444,0 -57.07444,0 -57.07444,0 v -0.18899 0"
       style="fill:none;stroke:#000000;stroke-width:0.26458332px;stroke-linecap:butt;stroke-linejoin:miter;stroke-opacity:1" />
    <path
       style="fill:none;stroke:#000000;stroke-width:0.111;stroke-linecap:butt;stroke-linejoin:miter;stroke-opacity:1;stroke-miterlimit:4;stroke-dasharray:none"
       d="m 76.464583,200.10987 c 0,6.01762 0,6.138 0,6.138"
       id="path2060"
       inkscape:connector-curvature="0" />
    <path
       inkscape:connector-curvature="0"
       id="path2062"
       d="m 93.397918,205.93071 c 0,6.01765 0,6.138 0,6.138"
       style="fill:none;stroke:#000000;stroke-width:0.111;stroke-linecap:butt;stroke-linejoin:miter;stroke-opacity:1;stroke-miterlimit:4;stroke-dasharray:none" />
    <path
       style="fill:none;stroke:#000000;stroke-width:0.111;stroke-linecap:butt;stroke-linejoin:miter;stroke-opacity:1;stroke-miterlimit:4;stroke-dasharray:none"
       d="m 109.80209,205.93071 c 0,6.01765 0,6.138 0,6.138"
       id="path2064"
       inkscape:connector-curvature="0" />
    <path
       inkscape:connector-curvature="0"
       id="path2066"
       d="m 126.20627,200.10987 c 0,6.01765 0,6.138 0,6.138"
       style="fill:none;stroke:#000000;stroke-width:0.111;stroke-linecap:butt;stroke-linejoin:miter;stroke-opacity:1;stroke-miterlimit:4;stroke-dasharray:none" />
  </g>
  <g
     inkscape:groupmode="layer"
     id="layer2"
     inkscape:label="components"
     sodipodi:insensitive="true" />
</svg>
